<?xml version="1.0" encoding="utf-8"?>
<!-- Generator: Adobe Illustrator 15.0.2, SVG Export Plug-In  -->
<!DOCTYPE svg PUBLIC "-//W3C//DTD SVG 1.1//EN" "http://www.w3.org/Graphics/SVG/1.1/DTD/svg11.dtd" [
	<!ENTITY ns_flows "http://ns.adobe.com/Flows/1.0/">
]>
<svg version="1.1"
	 xmlns="http://www.w3.org/2000/svg" xmlns:xlink="http://www.w3.org/1999/xlink" xmlns:a="http://ns.adobe.com/AdobeSVGViewerExtensions/3.0/"
	 x="0px" y="0px" width="400px" height="100px" viewBox="-5.3 -13.3 400 100" enable-background="new -5.3 -13.3 400 100"
	 xml:space="preserve">
<defs>
</defs>
<path d="M6,70.6c-3.8-2.3-6-5.8-6-10.2V0.2h1.6v60.2c0,3.9,2,6.8,5.3,8.8c3.4,2.1,8.9,3.1,14.6,3.1c5.9,0.1,11.8-0.9,15.3-3.1
	c3.3-2,5.3-4.9,5.3-8.8V0.2h1.6v60.2c0,4.4-2.2,7.9-6,10.2c-3.9,2.3-10.2,3.5-16.4,3.4C15.3,73.8,9.6,72.8,6,70.6z"/>
<path d="M91.2,73.7V35.4c0-16.2-34.1-15.7-34.9-0.6v39h-1.7V21.9h1.7v7.5c7.5-12,36.5-10.2,36.5,6v38.3H91.2z"/>
<path d="M106.9,0v9.9h-1.7V0H106.9z M106.9,21.6v52.1h-1.7V21.6H106.9z"/>
<path d="M120.3,37.7v2c0,4.7-0.6,20.6,0.5,23.9c2.2,6.3,10.7,8.4,16.6,8.4c6.8,0,13.6,0,20.4,0v1.7c-6.7,0-13.5,0-20.4,0
	c-7.9,0-18.8-3.5-18.8-13V0.1c13.1,0,26.1,0,39.2,0v1.7h-37.5V36h37.5v1.7H120.3z"/>
<path d="M211,25.2c0,3.7-1.8,6.5-4.7,8.5c-1.6,1.2-3.9,2.2-5.8,2.7c2.3,0.5,4.6,1.4,6.6,2.6c3.9,2.3,6.4,5.7,6.4,10.4v0.6V60
	c0,4.7-2.5,8.1-6.4,10.5c-4,2.3-9,3.3-13.5,3.3h-0.4v0.1h-25.4V0.9V0.2h25.7c4,0,8.5,0.8,12,2.9c3.4,2,5.6,5,5.6,9.1v0.6V25.2z
	 M169.4,1.8v33.8h24c6.6,0,16.1-2.5,16.1-10.7V12.3c0-3.5-2-6.1-4.8-7.8c-3.3-2-7.3-2.7-11.1-2.7H193h-0.1H169.4z M169.4,37.3v34.9
	h24.3c4.2,0,9-0.8,12.7-3c3.4-2,5.7-5.1,5.7-9.1v-0.6v-9.9c0-4-2.3-7-5.7-9c-3.7-2.3-8.4-3.2-12.7-3.2h-0.3H169.4z"/>
<path d="M261.2,61c0,9.9-11.3,13.3-19.4,13.2c-8-0.1-18.8-3.7-18.8-13.2V35c0-17.6,38.2-17.6,38.2,0V61z M259.6,35
	c0-15.4-34.9-15.3-34.9,0v26c0,15.5,34.9,15.6,34.9,0V35z"/>
<path d="M271.2,28c9.1-10.5,35.7-8.1,35.7,7.5c0,8.8,0,17.6,0,26.6V65c0,3.7,1.6,6.9,5.7,6.9v1.8c-4,0-6.4-2.3-7-6.1
	c-3.3,5.4-11.2,6.7-17.7,6.7c-4.1,0-8.1-0.8-11.3-2.5c-9.8-4.9-10.5-19.5-1.3-25.1c3.2-1.9,7.3-2.7,12.2-2.7h17.8v-8.5
	c0-13.9-24.3-15.5-32.5-6.5L271.2,28z M287.4,45.6c-4.9,0-8.6,1-11.3,2.6c-8,4.9-7.3,17.7,1.2,22c3,1.6,6.8,2.4,10.6,2.4
	c7.2,0,17.4-1.9,17.4-10.6c0-5.5,0-11,0-16.5H287.4z"/>
<path d="M320,22h1.8v7.7c4.4-7.9,14.7-9.9,22.9-7.1L344,24c-9.1-3.1-22.2,1.5-22.2,12.5v37.2H320V22z"/>
<path d="M386,0v60.9v12.8h-1.7v-7.3c-2.2,3.7-5.9,5.8-9.8,6.8c-5,1.4-10.5,1.4-15.5,0c-6-1.7-11.4-5.5-11.4-12.3V34.8
	c0-8.1,7.8-12,14.8-13c2.2-0.3,4.6-0.3,6.9-0.2c5.7,0.4,12.3,2.7,15,8.1V0H386z M359.5,71.5c4.6,1.3,9.9,1.3,14.5,0
	c5.1-1.4,10.3-4.7,10.3-10.6V34.8c0-5.4-4.3-8.6-8.9-10.3c-2-0.6-4.2-1-6.3-1.2c-2.1-0.2-4.3-0.1-6.5,0.2
	c-6.1,0.8-13.3,4.2-13.3,11.2c0,8.3,0,17.8,0,26.1C349.2,66.8,354.3,70.1,359.5,71.5z"/>
</svg>
